<?xml version="1.0" encoding="UTF-8" standalone="no"?>
<!-- Created with Inkscape (http://www.inkscape.org/) -->
<svg
   xmlns:svg="http://www.w3.org/2000/svg"
   xmlns="http://www.w3.org/2000/svg"
   version="1.0"
   width="938.35168"
   height="570"
   id="svg2">
  <defs
     id="defs4" />
  <g
     transform="translate(132.34771,51.634243)"
     id="layer1">
    <path
       d="M -67.292842,-46.634243 L -97.997742,-11.649006 L -97.997742,41.898932 L -121.93271,41.549517 L -121.93271,74.00149 L -97.997742,74.00149 L -97.997742,386.33535 L -121.93271,385.98593 L -121.93271,418.43791 L -97.997742,418.43791 L -97.997742,507.4952 C -73.606085,514.13277 -54.583293,512.74512 -38.116641,507.4952 L -38.116641,418.43791 L -12.521949,418.43791 L -12.521949,507.4952 C 11.869705,514.13277 30.89249,512.74512 47.359148,507.4952 L 46.966055,418.43791 L 70.551608,418.43791 L 70.551608,508.89286 C 94.943262,515.53043 113.96605,514.14278 130.4327,508.89286 L 129.95226,418.43791 L 148.95173,418.43791 L 148.95173,507.4952 C 173.34337,514.13277 192.36619,512.74512 208.83283,507.4952 L 208.83283,418.43791 L 222.11062,418.43791 L 226.39096,418.43791 L 225.95419,507.4952 C 242.42083,512.74512 261.48732,514.13277 285.87897,507.4952 L 285.87897,418.43791 L 309.20246,418.43791 L 308.72201,507.84462 C 325.18865,513.09456 344.21145,514.48219 368.60311,507.84462 L 368.60311,418.43791 L 392.97484,418.43791 L 392.97484,508.89286 C 417.36649,515.53043 436.38927,514.14278 452.85593,508.89286 L 452.37549,418.43791 L 474.30132,418.43791 L 474.30132,508.76183 C 498.69298,515.3994 517.75942,514.01176 534.2261,508.76183 L 534.2261,418.43791 L 553.53131,418.43791 L 553.53131,507.4952 C 577.92295,514.13277 596.98943,512.74512 613.45608,507.4952 L 613.45608,418.43791 L 636.64854,418.43791 L 636.64854,507.4952 C 661.04018,514.13277 680.10667,512.74512 696.57331,507.4952 L 696.13655,418.43791 L 714.00041,418.43791 L 714.00041,507.4952 C 738.39207,514.13277 757.41487,512.74512 773.88152,507.4952 L 773.88152,418.43791 L 797.77329,418.43791 L 797.77329,385.98593 L 773.88152,386.20432 L 773.88152,74.00149 L 797.77329,74.00149 L 797.7728,41.549517 L 773.88152,41.898932 L 773.88152,-11.649006 L 744.70531,-46.634243 L 714.00041,-11.649006 L 714.00041,42.685117 L 696.2239,42.947179 L 696.57331,-11.649006 L 667.35343,-46.634243 L 636.64854,-11.649006 L 636.64854,43.777041 L 613.45608,44.08278 L 613.45608,-11.649006 L 584.2362,-46.634243 L 553.53131,-11.649006 L 553.53131,43.995426 L 534.2261,43.777041 L 534.2261,-10.382375 L 505.00622,-45.411288 L 474.30132,-10.382375 L 474.30132,43.07821 L 452.59387,42.859826 L 452.85593,-10.251345 L 423.63606,-45.280257 L 392.97484,-10.251345 L 392.97484,42.204671 L 368.60311,41.94261 L 368.60311,-11.255914 L 337.94189,-46.284827 L 308.72201,-11.255914 L 308.98407,41.636871 L 285.87897,41.724224 L 285.87897,-11.649006 L 255.17407,-46.634243 L 225.95419,-11.649006 L 226.3036,41.94261 L 208.83283,42.029964 L 208.83283,-11.649006 L 179.65662,-46.634243 L 148.95173,-11.649006 L 148.95173,42.248348 L 130.17064,42.335702 L 130.4327,-10.251345 L 101.2565,-45.280257 L 70.551608,-10.251345 L 70.551608,42.597763 L 47.05341,42.685117 L 47.359148,-11.649006 L 18.182946,-46.634243 L -12.521949,-11.649006 L -12.521949,42.903503 L -21.999847,42.947179 L -38.116641,42.728795 L -38.116641,-11.649006 L -67.292842,-46.634243 z M -38.116641,74.00149 L -12.521949,74.00149 L -12.521949,289.24149 L -12.521949,387.51463 L -38.116641,387.16521 L -38.116641,74.00149 z M 46.835024,74.00149 L 70.551608,74.00149 L 70.551608,388.65022 L 46.791347,388.34449 L 46.005162,216.25731 L 46.835024,74.00149 z M 129.99593,74.00149 L 148.95173,74.00149 L 148.95173,388.08243 L 129.77755,388.30081 L 129.07872,257.57571 L 129.99593,74.00149 z M 208.83283,74.00149 L 226.47831,74.00149 L 227.35185,216.25731 L 226.52199,387.20889 L 208.83283,387.42727 L 208.83283,74.00149 z M 285.87897,74.00149 L 309.15878,74.00149 L 310.076,256.57114 L 309.37717,386.29167 L 285.87897,386.55373 L 285.87897,289.24149 L 285.87897,74.00149 z M 368.60311,74.00149 L 392.97484,74.00149 L 392.97484,386.20432 L 368.60311,386.11697 L 368.60311,74.00149 z M 452.41917,74.00149 L 474.30132,74.00149 L 474.30132,386.55373 L 452.20078,386.46638 L 451.50195,257.57571 L 452.41917,74.00149 z M 534.2261,74.00149 L 553.53131,74.00149 L 553.53131,274.78442 L 553.53131,386.85947 L 534.2261,386.77212 L 534.2261,74.00149 z M 613.45608,74.00149 L 636.64854,74.00149 L 636.64854,289.24149 L 636.64854,387.16521 L 613.45608,387.07786 L 613.45608,171.57579 L 613.45608,74.00149 z M 696.04919,74.00149 L 714.00041,74.00149 L 714.00041,387.03418 L 696.00551,387.29624 L 695.17565,216.25731 L 696.04919,74.00149 z"
       id="rect3176"
       style="fill:#000000;fill-opacity:1;fill-rule:nonzero;stroke:none;stroke-width:0.69999999;stroke-linecap:square;stroke-linejoin:bevel;stroke-miterlimit:4;stroke-dashoffset:2.98999994;stroke-opacity:1" />
  </g>
</svg>
